<svg xmlns="http://www.w3.org/2000/svg" width="15.497" height="11.754" viewBox="0 0 15.497 11.754"><path fill='#fafafa' d="M-14.312,282.7l-.41.41a.259.259,0,0,1-.188.082.259.259,0,0,1-.188-.082l-3.819-3.819A.259.259,0,0,1-19,279.1a.259.259,0,0,1,.082-.188l3.819-3.819a.259.259,0,0,1,.188-.082.259.259,0,0,1,.188.082l.41.41a.259.259,0,0,1,.082.188.259.259,0,0,1-.082.189l-3.221,3.221,3.221,3.221a.259.259,0,0,1,.082.189A.259.259,0,0,1-14.312,282.7Zm4.843-8.744-3.057,10.58a.266.266,0,0,1-.127.16.229.229,0,0,1-.193.021l-.508-.139a.267.267,0,0,1-.16-.127.245.245,0,0,1-.02-.2l3.057-10.58a.266.266,0,0,1,.127-.16.229.229,0,0,1,.193-.021l.508.139a.267.267,0,0,1,.16.127A.245.245,0,0,1-9.469,273.956Zm5.384,5.335L-7.9,283.11a.259.259,0,0,1-.188.082.259.259,0,0,1-.188-.082l-.41-.41a.259.259,0,0,1-.082-.188.259.259,0,0,1,.082-.189L-5.47,279.1l-3.221-3.221a.259.259,0,0,1-.082-.189.259.259,0,0,1,.082-.188l.41-.41a.259.259,0,0,1,.188-.082.259.259,0,0,1,.188.082l3.819,3.819A.259.259,0,0,1-4,279.1.259.259,0,0,1-4.085,279.291Z" transform="translate(19.25 -273.225)" stroke="currentColor" stroke-width="0.5"/></svg>