<svg xmlns="http://www.w3.org/2000/svg" width="55.693" height="63.163" viewBox="0 0 55.693 63.163"><path d="M130.327,100.62l-5.074,56.84-22.807,6.323L79.7,157.469,74.633,100.62Z" transform="translate(-74.633 -100.62)" fill="#264de4"/><path d="M274.429,179.466l4.336-48.572H256v53.681Z" transform="translate(-228.153 -126.246)" fill="#2965f1"/><path d="M150.31,268.217l.625,6.972h15.6v-6.972Z" transform="translate(-138.691 -242.484)" fill="#ebebeb"/><path d="M159.615,176.3H142.132l.634,6.972h16.849Z" transform="translate(-131.768 -164.684)" fill="#ebebeb"/><path d="M171.7,351.236v-7.254l-.031.008-7.765-2.1-.5-5.561h-7l.977,10.947,14.282,3.965Z" transform="translate(-143.853 -300.142)" fill="#ebebeb"/><path d="M264.429,197.389l-.809,9.042-7.776,2.1v7.254l14.293-3.961.1-1.178,1.638-18.356.17-1.872,1.259-14.112H255.843v6.972h9.825l-.634,7.14h-9.19v6.972Z" transform="translate(-228.02 -164.684)" fill="#fff"/></svg>