<svg xmlns="http://www.w3.org/2000/svg" width="36.345" height="27.5" viewBox="0 0 36.345 27.5"><g transform="translate(0.5 0.5)"><g transform="translate(0 0)"><path d="M29.669,70.305H5.677A5.683,5.683,0,0,1,0,64.628V49.482a5.684,5.684,0,0,1,5.677-5.677H29.669a5.683,5.683,0,0,1,5.676,5.677V64.628A5.683,5.683,0,0,1,29.669,70.305ZM5.677,45.465A4.021,4.021,0,0,0,1.66,49.482V64.628a4.022,4.022,0,0,0,4.017,4.017H29.669a4.022,4.022,0,0,0,4.017-4.017V49.482a4.021,4.021,0,0,0-4.017-4.017Z" transform="translate(0 -43.805)" stroke="#000" stroke-width="1"/><path d="M40.666,87.823l12.729,12.4c.791.771,2-.441,1.213-1.213L41.878,86.61c-.791-.771-2,.441-1.213,1.212Z" transform="translate(-36.328 -82.067)" stroke="#000" stroke-width="1"/><path d="M167.962,100.227l12.729-12.4c.792-.772-.421-1.984-1.213-1.213l-12.729,12.4c-.792.772.421,1.984,1.213,1.213Z" transform="translate(-149.683 -82.067)" stroke="#000" stroke-width="1"/><path d="M218.1,178.989l-8.47-8.032c-.8-.759-2.015.451-1.213,1.213l8.47,8.032c.8.759,2.015-.452,1.213-1.213Z" transform="translate(-187.141 -157.903)" stroke="#000" stroke-width="1"/><path d="M43.052,180.2l8.47-8.032c.8-.761-.412-1.972-1.213-1.213l-8.47,8.032c-.8.761.412,1.973,1.213,1.213Z" transform="translate(-37.378 -157.898)" stroke="#000" stroke-width="1"/></g></g></svg>