<svg xmlns="http://www.w3.org/2000/svg" width="15.497" height="11.754" viewBox="0 0 25.244 17.212"><path fill='#ddd' d="M19.667,2.221a17.5,17.5,0,0,1,5.44,6.134l.138.251-.138.249a17.524,17.524,0,0,1-5.44,6.134,12.527,12.527,0,0,1-7.045,2.223A12.529,12.529,0,0,1,5.58,14.991,17.514,17.514,0,0,1,.138,8.854L0,8.606l.138-.251a17.5,17.5,0,0,1,5.44-6.134A12.541,12.541,0,0,1,12.622,0a12.546,12.546,0,0,1,7.045,2.221ZM12.489,4.555l.838.08a2.838,2.838,0,0,0-.475,1.576,2.737,2.737,0,0,0,2.691,2.782,2.6,2.6,0,0,0,1.313-.353c.006.1.01.193.01.292a4.378,4.378,0,1,1-4.378-4.376Zm9.9,4.051a14.049,14.049,0,0,0-4.271-4.748,9.79,9.79,0,0,0-5.5-1.742,9.788,9.788,0,0,0-5.5,1.742A14.075,14.075,0,0,0,2.851,8.606a14.027,14.027,0,0,0,4.273,4.746,9.788,9.788,0,0,0,5.5,1.742,9.8,9.8,0,0,0,5.5-1.742,14.022,14.022,0,0,0,4.271-4.746Z"/></svg>