<svg xmlns="http://www.w3.org/2000/svg" width="81.955" height="81.952" viewBox="0 0 81.955 81.952"><path d="M80.41,37.415,44.625,1.635a5.277,5.277,0,0,0-7.463,0l-7.43,7.431,9.425,9.425a6.268,6.268,0,0,1,7.937,7.991l9.084,9.084a6.272,6.272,0,1,1-3.762,3.541l-8.472-8.472V52.928a6.268,6.268,0,1,1-5.163-.183v-22.5a6.2,6.2,0,0,1-2.057-1.37,6.278,6.278,0,0,1-1.353-6.865l-9.291-9.293L1.546,37.25a5.279,5.279,0,0,0,0,7.465L37.328,80.5a5.278,5.278,0,0,0,7.464,0L80.409,44.884a5.281,5.281,0,0,0,0-7.466" transform="translate(0 -0.089)" fill="#f05133"/></svg>