<svg xmlns="http://www.w3.org/2000/svg" width="49.668" height="57.779" viewBox="0 0 49.668 57.779">
  <g id="html" transform="translate(0)">
    <path id="Path_3" data-name="Path 3" d="M79.118,152.621,74.6,100.6h49.668l-4.518,51.992-20.357,5.786" transform="translate(-74.6 -100.6)" fill="#e44d26"/>
    <path id="Path_4" data-name="Path 4" d="M256,180.085V131h20.3l-3.874,44.38" transform="translate(-231.166 -126.73)" fill="#f16529"/>
    <path id="Path_5" data-name="Path 5" d="M142,176.3h15.607v6.376h-8.789l.575,6.531h8.214v6.362H143.7m.274,3.2h6.243l.438,5.1,6.955,1.91v6.657l-12.759-3.652" transform="translate(-132.773 -165.668)" fill="#ebebeb"/>
    <path id="Path_6" data-name="Path 6" d="M271.379,176.3H255.8v6.376h15m-.561,6.531H255.8v6.376h7.666l-.726,8.286-6.941,1.91v6.629l12.732-3.623" transform="translate(-230.993 -165.668)" fill="#fff"/>
  </g>
</svg>
