<svg xmlns="http://www.w3.org/2000/svg" width="26.801" height="26.801" viewBox="0 0 26.801 26.801"><g transform="translate(-12.1 -418.1)"><path d="M26.8,3.35A3.352,3.352,0,0,0,23.451,0H3.35A3.352,3.352,0,0,0,0,3.35v20.1A3.352,3.352,0,0,0,3.35,26.8h20.1a3.352,3.352,0,0,0,3.35-3.35Z" transform="translate(12.1 418.1)" fill="#fff" fill-rule="evenodd"/><g transform="translate(15.021 420.941)"><rect width="4.489" height="13.503" transform="translate(0.265 6.511)" fill="#2867b2"/><path d="M58.539,54.28a2.34,2.34,0,1,0-.059,4.666h.029a2.34,2.34,0,1,0,.03-4.666Z" transform="translate(-56 -54.28)" fill="#2867b2"/><path d="M202.8,172.6a4.458,4.458,0,0,0-4.045,2.229v-1.912h-4.488c.06,1.267,0,13.5,0,13.5h4.488V178.88a3.068,3.068,0,0,1,.148-1.1,2.456,2.456,0,0,1,2.3-1.641c1.623,0,2.274,1.239,2.274,3.053v7.225h4.488v-7.743C207.965,174.53,205.75,172.6,202.8,172.6Z" transform="translate(-187.027 -166.407)" fill="#2867b2"/></g></g></svg>