<svg xmlns="http://www.w3.org/2000/svg" width="1023" height="1023.151" viewBox="0 0 1023 1023.151">
  <g id="next-js" transform="translate(-0.5 -0.325)">
    <path id="Path_1" data-name="Path 1" d="M478.5.6c-2.2.2-9.2.9-15.5,1.4C317.7,15.1,181.6,93.5,95.4,214c-48,67-78.7,143-90.3,223.5C1,465.6.5,473.9.5,512s.5,46.4,4.6,74.5C32.9,778.6,169.6,940,355,999.8c33.2,10.7,68.2,18,108,22.4,15.5,1.7,82.5,1.7,98,0,68.7-7.6,126.9-24.6,184.3-53.9,8.8-4.5,10.5-5.7,9.3-6.7-.8-.6-38.3-50.9-83.3-111.7L589.5,739.4,487,587.7c-56.4-83.4-102.8-151.6-103.2-151.6-.4-.1-.8,67.3-1,149.6-.3,144.1-.4,149.9-2.2,153.3-2.6,4.9-4.6,6.9-8.8,9.1-3.2,1.6-6,1.9-21.1,1.9H333.4l-4.6-2.9a18.7,18.7,0,0,1-6.7-7.3l-2.1-4.5.2-200.5.3-200.6,3.1-3.9a27.432,27.432,0,0,1,7.4-6.1c4.1-2,5.7-2.2,23-2.2,20.4,0,23.8.8,29.1,6.6,1.5,1.6,57,85.2,123.4,185.9S663.7,752.7,708.3,820.2l81,122.7,4.1-2.7c36.3-23.6,74.7-57.2,105.1-92.2a509.233,509.233,0,0,0,120.4-261.5c4.1-28.1,4.6-36.4,4.6-74.5s-.5-46.4-4.6-74.5C991.1,245.4,854.4,84,669,24.2,636.3,13.6,601.5,6.3,562.5,1.9c-9.6-1-75.7-2.1-84-1.3ZM687.9,310A20.178,20.178,0,0,1,698,321.8c.8,2.6,1,58.2.8,183.5l-.3,179.8-31.7-48.6L635,587.9V457.2c0-84.5.4-132,1-134.3a20.4,20.4,0,0,1,9.9-12.6c4.1-2.1,5.6-2.3,21.3-2.3,14.8,0,17.4.2,20.7,2Z" fill="#fff"/>
    <path id="Path_2" data-name="Path 2" d="M784.3,945.1c-3.5,2.2-4.6,3.7-1.5,2,2.2-1.3,5.8-4,5.2-4.1A20.589,20.589,0,0,0,784.3,945.1Zm-6.9,4.5c-1.8,1.4-1.8,1.5.4.4a6.118,6.118,0,0,0,2.2-1.5c0-.8-.5-.6-2.6,1.1Zm-5,3c-1.8,1.4-1.8,1.5.4.4a6.118,6.118,0,0,0,2.2-1.5c0-.8-.5-.6-2.6,1.1Zm-5,3c-1.8,1.4-1.8,1.5.4.4a6.118,6.118,0,0,0,2.2-1.5c0-.8-.5-.6-2.6,1.1Zm-7.6,4c-3.8,2-3.6,2.8.2.9a10.418,10.418,0,0,0,3-2C763,957.8,762.9,957.9,759.8,959.6Z" fill="#fff"/>
  </g>
</svg>
