<svg xmlns="http://www.w3.org/2000/svg" width="70.246" height="62.557" viewBox="0 0 70.246 62.557"><g transform="translate(0)"><path d="M245.946,109.286c0-4.653-5.828-9.063-14.762-11.8,2.062-9.106,1.145-16.352-2.892-18.671a6.278,6.278,0,0,0-3.207-.8v3.193a3.316,3.316,0,0,1,1.632.372c1.947,1.117,2.792,5.369,2.133,10.839-.158,1.346-.415,2.763-.73,4.21a69.387,69.387,0,0,0-9.092-1.561,69.844,69.844,0,0,0-5.956-7.159c4.668-4.338,9.049-6.715,12.027-6.715V78h0c-3.938,0-9.092,2.806-14.3,7.675-5.212-4.84-10.366-7.617-14.3-7.617V81.25c2.964,0,7.36,2.363,12.027,6.672a67.628,67.628,0,0,0-5.913,7.145,66.863,66.863,0,0,0-9.106,1.575c-.329-1.432-.573-2.821-.745-4.152-.673-5.47.158-9.722,2.09-10.853a3.187,3.187,0,0,1,1.647-.372V78.072h0a6.384,6.384,0,0,0-3.236.8c-4.023,2.32-4.926,9.55-2.849,18.628-8.906,2.749-14.7,7.145-14.7,11.784s5.828,9.063,14.762,11.8c-2.062,9.106-1.145,16.352,2.892,18.671a6.294,6.294,0,0,0,3.222.8c3.938,0,9.092-2.806,14.3-7.675,5.212,4.84,10.366,7.617,14.3,7.617a6.384,6.384,0,0,0,3.236-.8c4.023-2.32,4.926-9.55,2.849-18.628C240.147,118.335,245.946,113.925,245.946,109.286ZM227.3,99.735c-.53,1.847-1.188,3.751-1.933,5.656-.587-1.145-1.2-2.291-1.876-3.436s-1.36-2.262-2.062-3.35C223.466,98.9,225.428,99.277,227.3,99.735Zm-6.558,15.249c-1.117,1.933-2.262,3.766-3.451,5.47-2.133.186-4.3.286-6.472.286s-4.324-.1-6.443-.272q-1.783-2.556-3.465-5.441-1.632-2.814-2.978-5.7c.888-1.919,1.89-3.837,2.964-5.713,1.117-1.933,2.262-3.766,3.451-5.47,2.133-.186,4.3-.286,6.472-.286s4.324.1,6.443.272q1.783,2.556,3.465,5.441,1.632,2.814,2.978,5.7C222.807,111.19,221.819,113.109,220.745,114.984Zm4.625-1.861c.773,1.919,1.432,3.837,1.976,5.7-1.876.458-3.852.845-5.9,1.145.7-1.1,1.4-2.234,2.062-3.393S224.783,114.268,225.37,113.123ZM210.852,128.4a59.024,59.024,0,0,1-3.98-4.582c1.289.057,2.606.1,3.938.1s2.678-.029,3.98-.1A55.9,55.9,0,0,1,210.852,128.4ZM200.2,119.967c-2.033-.3-3.995-.673-5.87-1.131.53-1.847,1.188-3.751,1.933-5.656.587,1.145,1.2,2.291,1.876,3.436S199.5,118.879,200.2,119.967Zm10.581-29.8a59.036,59.036,0,0,1,3.98,4.582c-1.289-.057-2.606-.1-3.938-.1s-2.678.029-3.98.1A55.884,55.884,0,0,1,210.78,90.171Zm-10.6,8.433c-.7,1.1-1.4,2.234-2.062,3.393s-1.274,2.291-1.861,3.436c-.773-1.919-1.432-3.837-1.976-5.7C196.161,99.291,198.137,98.9,200.184,98.6Zm-12.958,17.927c-5.069-2.162-8.348-5-8.348-7.245s3.279-5.1,8.348-7.245c1.231-.53,2.577-1,3.966-1.446a68.762,68.762,0,0,0,3.222,8.72,67.792,67.792,0,0,0-3.179,8.677C189.818,117.547,188.472,117.06,187.226,116.531Zm7.7,20.461c-1.947-1.117-2.792-5.369-2.133-10.839.158-1.346.415-2.763.73-4.21a69.388,69.388,0,0,0,9.092,1.561,69.844,69.844,0,0,0,5.956,7.159c-4.668,4.338-9.049,6.715-12.027,6.715A3.418,3.418,0,0,1,194.93,136.991Zm33.963-10.911c.673,5.47-.158,9.722-2.09,10.853a3.186,3.186,0,0,1-1.647.372c-2.964,0-7.36-2.363-12.027-6.672a67.628,67.628,0,0,0,5.913-7.145,66.862,66.862,0,0,0,9.106-1.575A40.077,40.077,0,0,1,228.893,126.081Zm5.513-9.55c-1.231.53-2.577,1-3.966,1.446a68.771,68.771,0,0,0-3.222-8.72,67.8,67.8,0,0,0,3.179-8.677c1.418.444,2.763.931,4.023,1.46,5.069,2.162,8.348,5,8.348,7.245S239.474,114.383,234.405,116.531Z" transform="translate(-175.7 -78)" fill="#61dafb"/><path d="M320.8,78.4Z" transform="translate(-300.024 -78.343)" fill="#61dafb"/><circle cx="6.543" cy="6.543" r="6.543" transform="translate(28.565 24.742)" fill="#61dafb"/><path d="M520.5,78.1Z" transform="translate(-471.131 -78.086)" fill="#61dafb"/></g></svg>