<svg xmlns="http://www.w3.org/2000/svg" width="69.1" height="51.821" viewBox="0 0 69.1 51.821"><path d="M59.474,29.763a14.306,14.306,0,0,0-6.26,1.451,13.192,13.192,0,0,1-1.4-3.244,8.711,8.711,0,0,1-.126-2.726,24.213,24.213,0,0,1,.82-2.941c-.013-.126-.151-.719-1.54-.732s-2.587.265-2.726.631a15.23,15.23,0,0,0-.581,2.057c-.24,1.262-2.777,5.768-4.228,8.128a8.767,8.767,0,0,1-.959-2.373,8.71,8.71,0,0,1-.126-2.726,24.213,24.213,0,0,1,.82-2.941c-.013-.126-.151-.719-1.54-.732s-2.587.265-2.726.631-.29,1.224-.581,2.057-3.66,8.355-4.544,10.3c-.454,1-.846,1.792-1.123,2.335h0a.576.576,0,0,1-.05.1c-.24.467-.379.719-.379.719v.013c-.189.341-.391.656-.492.656a4.223,4.223,0,0,1,.025-2.146c.5-2.613,1.7-6.677,1.691-6.815,0-.076.227-.783-.783-1.149a1.253,1.253,0,0,0-1.426.24c-.088,0-.151.215-.151.215s1.1-4.569-2.1-4.569c-1.994,0-4.746,2.183-6.109,4.152-.858.467-2.688,1.464-4.645,2.537-.745.416-1.515.833-2.234,1.224-.05-.05-.1-.114-.151-.164-3.862-4.127-11.006-7.043-10.7-12.583.114-2.019.808-7.32,13.719-13.757C29.5,2.375,37.955,3.826,39.419,7.045c2.1,4.594-4.531,13.126-15.512,14.363-4.19.467-6.386-1.149-6.942-1.754-.581-.631-.669-.669-.883-.543-.353.189-.126.757,0,1.085a6.481,6.481,0,0,0,3.963,3.117c2.019.656,6.929,1.022,12.874-1.275C39.57,19.464,44.77,12.308,43.243,6.313c-1.527-6.083-11.624-8.09-21.179-4.7-5.68,2.019-11.839,5.2-16.269,9.34C.532,15.88-.3,20.158.04,21.951c1.224,6.361,10,10.5,13.5,13.568-.177.1-.341.189-.48.265-1.754.871-8.444,4.367-10.11,8.065-1.893,4.19.3,7.194,1.754,7.6,4.506,1.25,9.138-1,11.624-4.708S18.518,38.207,17.369,36a.264.264,0,0,0-.05-.076c.454-.265.921-.543,1.376-.808.9-.53,1.78-1.022,2.537-1.426a16.635,16.635,0,0,0-.9,4.594c-.189,2.373.783,5.452,2.057,6.664a2.273,2.273,0,0,0,1.666.543c1.489,0,2.158-1.237,2.9-2.7.909-1.792,1.729-3.875,1.729-3.875s-1.022,5.629,1.754,5.629c1.01,0,2.032-1.313,2.486-1.982v.013s.025-.038.076-.126l.164-.265v-.025c.4-.707,1.313-2.31,2.663-4.973,1.742-3.433,3.42-7.724,3.42-7.724a21.934,21.934,0,0,0,.669,2.789,26.265,26.265,0,0,0,1.439,3.231c-.4.568-.656.883-.656.883l.013.013c-.328.429-.682.9-1.073,1.35A40.231,40.231,0,0,0,36.4,41.791a1.1,1.1,0,0,0,.3,1.489,2.754,2.754,0,0,0,1.691.278,7.767,7.767,0,0,0,2.537-.581,8.514,8.514,0,0,0,2.183-1.149,4.886,4.886,0,0,0,2.1-4.3,8.69,8.69,0,0,0-.8-3.042c.126-.177.24-.353.366-.53a57.817,57.817,0,0,0,3.786-6.538,21.935,21.935,0,0,0,.669,2.789,18.683,18.683,0,0,0,1.224,2.777,12,12,0,0,0-3.685,4.758c-.8,2.3-.177,3.332,1,3.572a3.518,3.518,0,0,0,1.843-.379,8.394,8.394,0,0,0,2.335-1.2c1.35-1,2.65-2.385,2.575-4.266a8.065,8.065,0,0,0-.581-2.524,13.218,13.218,0,0,1,6.7-.77c6.008.707,7.194,4.455,6.967,6.033a3.993,3.993,0,0,1-1.906,2.7c-.416.265-.555.353-.517.543.05.278.252.265.606.215a4.692,4.692,0,0,0,3.269-4.178C69.255,33.777,65.721,29.725,59.474,29.763ZM13.128,45.388c-1.994,2.171-4.771,2.991-5.97,2.3-1.287-.745-.783-3.95,1.666-6.248a31.8,31.8,0,0,1,4.683-3.5c.29-.177.719-.429,1.237-.745.088-.05.139-.076.139-.076h0l.3-.189A8.621,8.621,0,0,1,13.128,45.388Zm14.514-9.87c-.694,1.691-2.146,6.02-3.029,5.781-.757-.2-1.224-3.483-.151-6.727a15.283,15.283,0,0,1,2.36-4.329c1.085-1.212,2.284-1.616,2.575-1.123C29.763,29.763,28.072,34.458,27.643,35.519Zm11.978,5.73c-.29.151-.568.252-.694.177-.088-.05.126-.252.126-.252s1.5-1.616,2.1-2.348c.341-.429.745-.934,1.174-1.5v.164C42.322,39.419,40.454,40.719,39.621,41.249Zm9.239-2.108c-.215-.151-.177-.656.543-2.234a8.409,8.409,0,0,1,2.057-2.65,3.573,3.573,0,0,1,.2,1.161A3.818,3.818,0,0,1,48.859,39.141Z" transform="translate(0.026 0.026)" fill="#cd6799"/></svg>